<svg preserveAspectRatio="none" width="100%" height="100%" overflow="visible" style="display: block;" viewBox="0 0 40 40" fill="none" xmlns="http://www.w3.org/2000/svg">
<g id="EcomLayout">
<rect width="40" height="40" rx="10" fill="url(#paint0_linear_0_6)"/>
<path id="B" d="M12 7H20.4397C23.2179 7 25.3541 7.56952 26.8482 8.70857C28.3424 9.84762 29.0895 11.4695 29.0895 13.5743C29.0895 14.7381 28.8327 15.7533 28.3191 16.62C27.8054 17.4867 27 18.2667 25.9027 18.96V19.0343C27.3502 19.6781 28.3891 20.4952 29.0195 21.4857C29.6732 22.4762 30 23.739 30 25.2743C30 27.7505 29.2996 29.6571 27.8988 30.9943C26.5214 32.3314 24.5603 33 22.0156 33H12V7ZM20.7549 17.1771C21.572 17.1771 22.214 16.9171 22.6809 16.3971C23.1712 15.8524 23.4163 15.1343 23.4163 14.2429C23.4163 12.46 22.3074 11.5686 20.0895 11.5686H17.6381V17.1771H20.7549ZM21.4903 28.4314C22.4008 28.4314 23.1128 28.1095 23.6265 27.4657C24.1634 26.8219 24.4319 25.9552 24.4319 24.8657C24.4319 23.6771 24.1167 22.8229 23.4864 22.3029C22.856 21.7581 21.8288 21.4857 20.4047 21.4857H17.6381V28.4314H21.4903Z" fill="var(--fill-0, white)"/>
</g>
<defs>
<linearGradient id="paint0_linear_0_6" x1="20" y1="0" x2="20" y2="40" gradientUnits="userSpaceOnUse">
<stop stop-color="#21BDFF"/>
<stop offset="1" stop-color="#0485F7"/>
</linearGradient>
</defs>
</svg>
